<svg width="812" height="79" viewBox="0 0 812 79" fill="none" xmlns="http://www.w3.org/2000/svg">
<path d="M175.418 0.162503C198.511 0.142195 198.511 0.142195 208.164 0.137916C210.374 0.136931 212.583 0.135913 214.792 0.134843C215.069 0.13471 215.346 0.134577 215.631 0.134441C220.097 0.132253 224.562 0.128285 229.027 0.123654C233.612 0.118939 238.197 0.116147 242.783 0.115127C245.61 0.114437 248.437 0.112262 251.265 0.108164C253.206 0.105494 255.147 0.1047 257.088 0.105352C258.207 0.105673 259.325 0.105194 260.444 0.102479C261.47 0.100005 262.497 0.0999206 263.524 0.101627C263.893 0.101837 264.262 0.101219 264.63 0.0996205C271.985 0.0696319 279.485 1.46978 285.08 6.70837C289.149 10.9664 290.538 17.2244 290.519 23.0151C290.519 23.3754 290.519 23.3754 290.52 23.7431C290.52 24.544 290.519 25.3449 290.517 26.1459C290.517 26.7216 290.517 27.2974 290.517 27.8731C290.518 29.4335 290.516 30.9938 290.514 32.5542C290.513 34.1858 290.513 35.8175 290.512 37.4492C290.512 40.1869 290.51 42.9247 290.508 45.6625C290.506 48.4817 290.504 51.301 290.503 54.1202C290.503 54.2959 290.503 54.4716 290.503 54.6527C290.502 56.1812 290.502 57.7098 290.501 59.2383C290.499 65.8138 290.494 72.3893 290.489 78.9647C280.185 78.9647 269.88 78.9647 259.263 78.9647C259.263 56.7818 259.263 34.5988 259.263 11.7437C255.855 11.7437 252.447 11.7437 248.936 11.7437C248.936 33.9266 248.936 56.1096 248.936 78.9647C238.469 78.9647 228.002 78.9647 217.217 78.9647C217.217 56.7818 217.217 34.5988 217.217 11.7437C213.809 11.7437 210.402 11.7437 206.89 11.7437C206.89 33.9266 206.89 56.1096 206.89 78.9647C196.504 78.9647 186.118 78.9647 175.418 78.9647C175.418 52.96 175.418 26.9553 175.418 0.162503Z" fill="white"/>
<path d="M115.146 0.120201C115.72 0.119391 116.294 0.118544 116.868 0.117662C118.068 0.11616 119.269 0.115688 120.469 0.115837C121.994 0.115863 123.519 0.112432 125.043 0.10809C126.229 0.105266 127.414 0.104781 128.599 0.104913C129.16 0.10462 129.722 0.103526 130.283 0.101557C134.597 0.0878466 138.971 0.133917 143.177 1.23249C143.39 1.28691 143.604 1.34133 143.824 1.3974C148.735 2.70321 152.979 5.35622 155.824 9.74527C157.315 12.3916 158.145 15.3066 158.652 18.3053C158.679 18.4679 158.707 18.6306 158.735 18.7981C159.296 22.5882 159.225 26.4684 159.218 30.2902C159.218 30.8241 159.218 31.358 159.218 31.8919C159.218 33.3278 159.216 34.7637 159.215 36.1996C159.213 37.7053 159.213 39.2109 159.213 40.7166C159.212 43.5617 159.21 46.4068 159.207 49.2519C159.204 53.1008 159.203 56.9496 159.201 60.7985C159.199 66.8539 159.194 72.9093 159.19 78.9647C148.804 78.9647 138.418 78.9647 127.717 78.9647C127.717 56.7818 127.717 34.5988 127.717 11.7436C124.309 11.7436 120.901 11.7436 117.39 11.7436C117.39 33.9266 117.39 56.1095 117.39 78.9647C107.004 78.9647 96.6182 78.9647 85.9176 78.9647C85.8977 65.2777 85.8977 65.2777 85.8935 59.5218C85.8906 55.5548 85.8872 51.5878 85.8805 47.6208C85.8755 44.7311 85.8724 41.8413 85.8713 38.9516C85.8706 37.4232 85.8692 35.8949 85.8656 34.3666C85.8622 32.9242 85.8612 31.4819 85.8619 30.0395C85.8618 29.5138 85.8608 28.9881 85.8589 28.4625C85.8323 20.7371 86.325 12.4692 91.7332 6.50479C98.0884 0.430605 106.958 0.122933 115.146 0.120201Z" fill="white"/>
<path d="M566.366 0.162536C574.161 0.146959 581.955 0.131381 589.986 0.115331C592.438 0.108454 594.889 0.101578 597.415 0.0944937C600.433 0.0910823 600.433 0.0910823 601.851 0.0904485C602.831 0.0897512 603.81 0.0869465 604.79 0.082796C625.245 4.69494e-05 625.245 4.68904e-05 632.906 7.327C637.519 12.3686 638.819 19.3294 638.636 26.0348C638.334 32.4707 636.573 38.5156 631.888 43.0598C629.637 45.048 627.045 46.4022 624.394 47.746C624.519 47.8091 624.643 47.8721 624.772 47.9371C627.486 49.3217 629.958 50.749 632.262 52.7813C632.424 52.9218 632.586 53.0623 632.753 53.2071C635.79 56.0725 637.671 60.0151 638.855 64.0005C638.903 64.1605 638.951 64.3204 639 64.4852C640.32 69.2578 639.884 74.0044 639.884 78.9647C628.687 78.9647 617.49 78.9647 605.953 78.9647C605.953 56.7818 605.953 34.5989 605.953 11.7437C602.951 11.7437 599.949 11.7437 596.855 11.7437C596.855 33.9266 596.855 56.1096 596.855 78.9647C586.794 78.9647 576.733 78.9647 566.366 78.9647C566.366 52.96 566.366 26.9553 566.366 0.162536Z" fill="white"/>
<path d="M654.461 0.00614659C654.794 0.00686359 654.794 0.00686359 655.135 0.00759507C655.391 0.0050887 655.648 0.00258232 655.912 0C656.195 0.00366675 656.478 0.00733349 656.77 0.0111114C657.07 0.0100358 657.37 0.00896022 657.678 0.00785206C658.512 0.00613312 659.346 0.0100812 660.18 0.0163844C661.078 0.0218094 661.977 0.0199818 662.875 0.0190251C664.433 0.0183643 665.99 0.0223212 667.547 0.0293951C669.799 0.039616 672.05 0.042903 674.302 0.0444858C677.955 0.0472424 681.608 0.0556239 685.26 0.0675255C688.809 0.0790763 692.358 0.0879887 695.907 0.0933412C696.235 0.0938373 696.235 0.0938373 696.57 0.0943434C697.666 0.0959862 698.763 0.0975769 699.86 0.0991419C708.964 0.112196 718.068 0.134372 727.172 0.16249C727.2 2.58767 727.222 5.01278 727.235 7.4381C727.242 8.56471 727.25 9.69119 727.264 10.8177C727.278 11.9082 727.285 12.9986 727.288 14.0891C727.29 14.5018 727.295 14.9145 727.302 15.3271C727.434 23.8007 722.334 30.1536 716.898 36.0556C716.192 36.8238 715.509 37.6091 714.837 38.409C714.208 39.1415 713.559 39.8553 712.911 40.5707C712.121 41.4425 711.334 42.3145 710.575 43.2142C709.689 44.2629 708.767 45.2751 707.846 46.2914C707.188 47.0193 706.537 47.7507 705.903 48.5012C705.143 49.4009 704.357 50.2729 703.567 51.1448C702.636 52.1734 701.718 53.2102 700.821 54.2712C700.125 55.0811 699.41 55.8728 698.697 56.6668C697.606 57.881 696.529 59.1062 695.453 60.3341C694.262 61.6944 693.065 63.0491 691.857 64.3938C691.125 65.2089 690.398 66.0269 689.69 66.8643C688.799 67.9174 687.872 68.9351 686.947 69.9566C686.147 70.8415 685.364 71.7381 684.593 72.6499C683.899 73.4582 683.185 74.2484 682.473 75.0406C681.52 76.1013 680.577 77.1707 679.638 78.2438C679.005 78.9629 679.005 78.9629 678.527 78.9957C678.228 78.9953 678.228 78.9953 677.923 78.995C677.695 78.9953 677.467 78.9957 677.232 78.996C676.98 78.9951 676.728 78.9942 676.468 78.9933C676.073 78.9933 676.073 78.9933 675.669 78.9934C674.792 78.9932 673.915 78.9913 673.039 78.9893C672.433 78.9888 671.827 78.9885 671.221 78.9882C669.622 78.9872 668.023 78.9848 666.424 78.982C664.795 78.9793 663.165 78.9783 661.535 78.977C658.334 78.9743 655.133 78.97 651.932 78.9647C651.915 76.9291 651.902 74.8935 651.894 72.8578C651.89 71.9121 651.885 70.9665 651.877 70.0209C651.869 69.1051 651.864 68.1893 651.862 67.2735C651.861 66.9274 651.858 66.5812 651.854 66.2351C651.819 63.0309 652.117 59.8217 653.546 56.9196C653.63 56.7429 653.714 56.5661 653.801 56.384C654.712 54.5374 655.86 52.9006 657.096 51.2706C657.258 51.0548 657.419 50.839 657.586 50.6166C658.652 49.2241 659.781 47.887 660.909 46.5475C661.655 45.662 662.386 44.7679 663.105 43.8593C664.372 42.2618 665.695 40.7154 667.015 39.1632C668.52 37.3902 670.019 35.6134 671.464 33.7888C672.732 32.1912 674.055 30.6448 675.375 29.0926C676.88 27.3196 678.379 25.5428 679.824 23.7182C680.833 22.4465 681.877 21.2097 682.927 19.9744C684.009 18.7018 685.077 17.4184 686.139 16.1285C686.852 15.262 687.567 14.3966 688.282 13.5316C688.467 13.3083 688.467 13.3083 688.655 13.0805C688.954 12.7188 689.253 12.3571 689.552 11.9954C687.956 11.9183 686.361 11.8657 684.763 11.8295C684.221 11.8143 683.679 11.7938 683.137 11.7675C679.922 11.4765 679.922 11.4765 677.053 12.6482C676.356 13.3627 675.827 14.1705 675.291 15.0166C674.993 15.3405 674.688 15.6581 674.369 15.9607C673.791 16.5413 673.253 17.1419 672.725 17.7703C672.13 18.4773 671.515 19.1454 670.865 19.8001C670.226 20.4446 669.62 21.1012 669.036 21.7985C668.231 22.7579 667.365 23.6397 666.486 24.5276C665.844 25.1947 665.251 25.8958 664.656 26.6066C664.049 27.3052 663.398 27.9525 662.747 28.6079C662.257 29.118 661.795 29.6445 661.337 30.1854C661.126 30.4327 661.126 30.4327 660.91 30.685C660.618 31.0347 660.337 31.395 660.062 31.7589C659.423 32.2349 658.883 32.311 658.099 32.2605C656.587 31.894 655.767 30.5612 654.975 29.2885C652.322 24.3239 652.071 18.2914 651.932 12.7507C651.927 12.575 651.922 12.3993 651.916 12.2183C651.593 0.80475 651.593 0.80475 654.461 0.00614659Z" fill="white"/>
<path d="M307.701 0.162479C331.313 0.162479 354.925 0.162479 379.252 0.162479C379.252 7.47371 379.252 14.7849 379.252 22.3177C356.877 22.3177 356.877 22.3177 351.467 16.7789C350.266 15.2401 349.56 13.8326 348.763 11.9954C345.274 11.9123 341.785 11.8292 338.19 11.7436C338.19 18.3902 338.19 25.0368 338.19 31.8848C345.655 31.8848 353.12 31.8848 360.811 31.8848C360.811 36.9528 360.811 42.0208 360.811 47.2424C353.346 47.2424 345.881 47.2424 338.19 47.2424C338.19 57.7108 338.19 68.1791 338.19 78.9647C328.129 78.9647 318.067 78.9647 307.701 78.9647C307.701 52.96 307.701 26.9552 307.701 0.162479Z" fill="white"/>
<path d="M480.8 0.162479C504.412 0.162479 528.024 0.162479 552.351 0.162479C552.351 7.47371 552.351 14.7849 552.351 22.3177C534.6 22.3177 534.6 22.3177 528.747 19.5483C528.513 19.4403 528.279 19.3322 528.038 19.2208C524.799 17.5812 523.508 15.3668 521.862 11.9954C518.373 11.9123 514.884 11.8292 511.289 11.7436C511.289 18.3902 511.289 25.0368 511.289 31.8848C518.754 31.8848 526.219 31.8848 533.91 31.8848C533.91 36.9528 533.91 42.0208 533.91 47.2424C526.445 47.2424 518.98 47.2424 511.289 47.2424C511.289 57.7108 511.289 68.1791 511.289 78.9647C501.228 78.9647 491.166 78.9647 480.8 78.9647C480.8 52.96 480.8 26.9552 480.8 0.162479Z" fill="white"/>
<path d="M740.449 0.162479C764.061 0.162479 787.673 0.162479 812 0.162479C812 7.47371 812 14.7849 812 22.3177C790.145 22.3177 790.145 22.3177 784.4 16.9048C783.232 15.5201 783.232 15.5201 781.511 11.9954C778.022 11.9123 774.533 11.8292 770.938 11.7436C770.938 18.3902 770.938 25.0368 770.938 31.8848C778.403 31.8848 785.868 31.8848 793.559 31.8848C793.559 36.9528 793.559 42.0208 793.559 47.2424C786.094 47.2424 778.629 47.2424 770.938 47.2424C770.938 57.7108 770.938 68.1791 770.938 78.9647C760.877 78.9647 750.815 78.9647 740.449 78.9647C740.449 52.96 740.449 26.9552 740.449 0.162479Z" fill="white"/>
<path d="M27.9346 0.132245C28.1243 0.13203 28.3139 0.131815 28.5093 0.131593C29.1379 0.131182 29.7664 0.132558 30.395 0.133939C30.8483 0.13401 31.3016 0.13397 31.7549 0.133828C32.9806 0.133756 34.2063 0.135232 35.4319 0.136994C36.7147 0.138571 37.9975 0.138716 39.2802 0.139014C41.7071 0.139795 44.1339 0.14186 46.5608 0.144389C49.8418 0.147734 53.1228 0.149089 56.4038 0.150558C61.57 0.152923 66.7362 0.157939 71.9025 0.162521C71.9025 8.88615 71.9025 17.6098 71.9025 26.5978C68.3652 26.6211 68.3652 26.6211 64.7566 26.645C64.02 26.6519 63.2833 26.6587 62.5244 26.6658C61.9286 26.668 61.3328 26.6699 60.737 26.6715C60.2875 26.6773 60.2875 26.6773 59.8289 26.6832C55.0911 26.6847 50.4499 25.3609 46.8842 22.0188C44.0751 18.935 43.6263 15.887 43.6263 11.7437C39.975 11.7437 36.3237 11.7437 32.5617 11.7437C32.5617 33.9266 32.5617 56.1096 32.5617 78.9647C23.8473 78.9647 18.3797 77.5048 12.2459 71.3646C3.51615 62.3372 -0.0477502 48.873 0.000482577 36.4638C0.0288655 33.2996 0.178911 30.2012 0.843248 27.1013C0.884135 26.9044 0.925022 26.7075 0.967148 26.5046C2.91352 17.4219 7.48262 8.89287 15.1312 3.66854C19.0307 1.23375 23.3906 0.112922 27.9346 0.132245Z" fill="white"/>
<path d="M394.005 0.162547C395.056 0.157458 396.108 0.154424 397.159 0.15173C397.453 0.150279 397.748 0.148829 398.051 0.147335C404.009 0.135915 410.044 0.855442 415.396 3.68725C415.743 3.8698 415.743 3.8698 416.096 4.05604C420.128 6.35904 422.773 10.2105 424.026 14.7113C424.079 14.9107 424.132 15.1102 424.186 15.3156C424.235 15.496 424.284 15.6765 424.335 15.8623C425.303 19.7716 425.301 23.7708 425.287 27.775C425.287 28.3363 425.287 28.8975 425.288 29.4587C425.288 30.9689 425.285 32.4792 425.281 33.9895C425.278 35.5728 425.278 37.156 425.277 38.7393C425.276 41.3924 425.273 44.0455 425.269 46.6987C425.264 49.4292 425.261 52.1596 425.258 54.8901C425.258 55.0589 425.258 55.2278 425.258 55.4017C425.257 56.2489 425.257 57.096 425.256 57.9431C425.251 64.9503 425.242 71.9575 425.231 78.9648C424.161 78.975 423.09 78.9823 422.019 78.9872C421.656 78.9893 421.293 78.992 420.93 78.9956C413.885 79.0632 407.662 76.9572 402.519 71.8386C398.291 67.2618 396.089 61.2657 394.927 55.173C394.89 54.9796 394.853 54.7861 394.814 54.5868C394.125 50.6889 393.932 46.7875 393.949 42.8349C393.949 42.3654 393.949 41.8959 393.949 41.4264C393.949 40.1684 393.951 38.9105 393.955 37.6525C393.958 36.3317 393.958 35.0108 393.959 33.69C393.96 31.1962 393.964 28.7024 393.969 26.2086C393.975 23.3664 393.978 20.5242 393.98 17.682C393.985 11.8422 393.994 6.00236 394.005 0.162547Z" fill="white"/>
<path d="M462.848 0.156605C463.156 0.157031 463.464 0.157457 463.781 0.157896C464.537 0.159002 465.292 0.160551 466.047 0.162506C466.059 6.10683 466.068 12.0511 466.073 17.9955C466.075 20.7561 466.079 23.5167 466.085 26.2773C466.089 28.6859 466.093 31.0945 466.094 33.5031C466.094 34.7762 466.096 36.0493 466.099 37.3224C466.133 49.7626 466.133 49.7626 465.018 55.1887C464.965 55.4489 464.912 55.709 464.858 55.977C463.306 63.3117 460.136 70.681 453.753 74.8893C453.185 75.2507 452.611 75.598 452.032 75.9436C451.721 76.13 451.721 76.13 451.404 76.3202C447.399 78.5361 443.042 79.0507 438.57 78.9962C438.205 78.9937 437.839 78.9914 437.474 78.9893C436.589 78.9838 435.705 78.9752 434.821 78.9647C434.804 71.6372 434.791 64.3097 434.783 56.9822C434.782 56.1148 434.781 55.2473 434.78 54.3799C434.78 54.2072 434.78 54.0346 434.78 53.8567C434.776 51.0702 434.771 48.2838 434.764 45.4974C434.757 42.6328 434.753 39.7682 434.751 36.9035C434.75 35.2968 434.748 33.6902 434.743 32.0835C434.738 30.5677 434.736 29.052 434.737 27.5363C434.737 26.9833 434.736 26.4303 434.733 25.8774C434.7 19.1443 435.403 12.1318 440.152 7.00501C444.33 2.69128 450.196 1.02061 455.966 0.41427C456.212 0.38636 456.457 0.358449 456.71 0.329693C458.755 0.138355 460.796 0.151203 462.848 0.156605Z" fill="white"/>
<path d="M40.6757 42.2071C50.9805 42.2071 61.2853 42.2071 71.9024 42.2071C71.9227 45.1773 71.943 48.1475 71.9639 51.2077C71.9728 52.1345 71.9818 53.0613 71.991 54.0162C72.0294 60.8265 71.752 67.6367 66.9762 72.9548C60.1238 79.6364 49.2097 78.9647 40.6757 78.9647C40.6757 66.8347 40.6757 54.7047 40.6757 42.2071Z" fill="white"/>
<path d="M721.27 45.48C722.876 45.9283 723.817 47.0936 724.679 48.4865C728.005 54.7795 727.531 62.6736 727.356 69.6179C727.349 69.9418 727.343 70.2658 727.336 70.5995C727.242 73.5671 726.845 76.2203 725.696 78.9647C714.337 78.9647 702.977 78.9647 691.273 78.9647C692.211 77.8436 693.15 76.7397 694.131 75.6603C694.391 75.3731 694.651 75.0859 694.911 74.7988C695.108 74.5819 695.108 74.5819 695.308 74.3606C695.801 73.8162 696.293 73.2703 696.784 72.7242C697.979 71.3954 699.181 70.0723 700.386 68.7525C701.642 67.3766 702.89 65.9933 704.131 64.6033C705.208 63.3978 706.291 62.199 707.374 60.9991C707.99 60.3161 708.606 59.6327 709.222 58.9494C709.468 58.6767 709.714 58.4039 709.96 58.1312C710.082 57.9962 710.203 57.8612 710.329 57.7221C714.386 53.2218 714.386 53.2218 714.755 52.8124C715 52.5407 715.245 52.269 715.49 51.9972C716.119 51.2989 716.749 50.6013 717.38 49.9046C718.698 48.448 720.007 46.9874 721.27 45.48Z" fill="white"/>
<path d="M379.252 55.2989C379.252 63.1086 379.252 70.9184 379.252 78.9648C368.866 78.9648 358.48 78.9648 347.779 78.9648C347.779 66.5312 347.779 66.5312 351.985 62.0051C359.35 55.1356 369.974 55.2989 379.252 55.2989Z" fill="white"/>
<path d="M552.351 55.2989C552.351 63.1086 552.351 70.9184 552.351 78.9647C541.965 78.9647 531.579 78.9647 520.879 78.9647C520.879 66.4793 520.879 66.4793 525.093 61.9874C532.523 55.159 543.023 55.2989 552.351 55.2989Z" fill="white"/>
<path d="M812 55.2989C812 63.1086 812 70.9183 812 78.9647C801.614 78.9647 791.228 78.9647 780.527 78.9647C780.527 66.5499 780.527 66.5499 784.56 62.1998C791.965 55.165 802.571 55.2989 812 55.2989Z" fill="white"/>
</svg>
