<svg width="44" height="23" viewBox="0 0 44 23" fill="none" xmlns="http://www.w3.org/2000/svg">
<path d="M23.0732 0.0189548C23.1204 0.0129363 23.1675 0.00691784 23.2161 0.00071701C23.3113 0.000800649 23.3113 0.000800649 23.4085 0.000885978C23.4814 0.000593606 23.5544 0.000301233 23.6295 0C23.7512 0.000641599 23.7512 0.000641598 23.8753 0.00129616C23.9608 0.00117069 24.0462 0.00104522 24.1342 0.000915955C24.2247 0.000839562 24.3153 0.000763168 24.4086 0.000684459C24.456 0.000788829 24.5033 0.0008932 24.5521 0.00100073C24.6249 0.00122322 24.6249 0.00122322 24.699 0.0014502C24.7484 0.00160235 24.7978 0.00175451 24.8486 0.00191127C24.8986 0.00203437 24.9486 0.00215746 25.0001 0.00228429C25.0502 0.00231422 25.1003 0.00234414 25.152 0.00237498C25.2026 0.00236529 25.2532 0.00235561 25.3053 0.00234562C25.3566 0.00232655 25.4078 0.00230747 25.4606 0.00228781C25.5385 0.0022539 25.5385 0.0022539 25.6179 0.00221931C25.6705 0.00221017 25.7231 0.00220104 25.7774 0.00219163C25.8573 0.00219335 25.8573 0.00219335 25.9389 0.0021951C25.9929 0.0022048 26.0468 0.00221451 26.1024 0.00222451C26.1845 0.00227074 26.1845 0.00227074 26.2682 0.0023179C26.3237 0.00238803 26.3793 0.00245815 26.4365 0.00253041C26.5208 0.00266658 26.5208 0.00266658 26.6068 0.0028055C26.6635 0.0029053 26.7202 0.0030051 26.7786 0.00310792C26.8357 0.00321387 26.8929 0.00331982 26.9517 0.00342898C27.0093 0.00353558 27.0668 0.00364218 27.1261 0.00375201C27.1838 0.00385553 27.2416 0.00395905 27.3012 0.00406571C27.3881 0.00421308 27.3881 0.00421308 27.4769 0.00436342C27.5348 0.0044463 27.5928 0.00452918 27.6525 0.00461457C27.7389 0.00469251 27.7389 0.00469251 27.8271 0.00477203C27.8846 0.00480729 27.9421 0.00484254 28.0014 0.00487886C28.059 0.00490565 28.1167 0.00493243 28.1761 0.00496003C28.2338 0.0049807 28.2916 0.00500136 28.3511 0.00502265C28.4091 0.00504254 28.4671 0.00506244 28.5269 0.00508294C28.5851 0.00510126 28.6433 0.00511959 28.7033 0.00513847C28.7617 0.00515526 28.8201 0.00517205 28.8803 0.00518934C28.939 0.00520744 28.9976 0.00522554 29.0581 0.00524419C29.1171 0.00526703 29.1761 0.00528987 29.2369 0.00531341C29.3258 0.00535224 29.3258 0.00535224 29.4165 0.00539186C29.5057 0.0054345 29.5057 0.0054345 29.5968 0.00547801C29.6566 0.00550885 29.7163 0.00553969 29.7779 0.00557147C29.8379 0.0056036 29.8979 0.00563573 29.9596 0.00566884C30.0199 0.00570474 30.0801 0.00574064 30.1421 0.00577763C30.2026 0.00581852 30.263 0.00585941 30.3254 0.00590154C30.3861 0.00595006 30.4469 0.00599859 30.5095 0.00604859C30.5706 0.00610936 30.6317 0.00617013 30.6947 0.00623275C30.7868 0.00633526 30.7868 0.00633526 30.8808 0.00643984C30.9424 0.00651296 31.0041 0.00658607 31.0676 0.0066614C31.1603 0.00677668 31.1603 0.00677668 31.2549 0.00689429C31.3169 0.00697287 31.3789 0.00705145 31.4428 0.00713241C31.5049 0.0072129 31.5671 0.00729338 31.6311 0.00737631C31.6934 0.0074585 31.7556 0.00754069 31.8198 0.00762537C31.8822 0.00770839 31.9446 0.00779142 32.0089 0.00787696C32.0714 0.00796 32.1338 0.00804304 32.1982 0.0081286C32.2607 0.00821131 32.3233 0.00829401 32.3877 0.00837923C32.4817 0.00850195 32.4817 0.00850195 32.5775 0.00862715C32.6402 0.00870789 32.7029 0.00878863 32.7675 0.00887181C32.8302 0.00895169 32.893 0.00903156 32.9576 0.00911385C33.0518 0.00922973 33.0518 0.00922973 33.1479 0.00934795C33.2107 0.00942166 33.2735 0.00949537 33.3383 0.00957132C33.4325 0.00967315 33.4325 0.00967315 33.5287 0.00977704C33.6229 0.00986445 33.6229 0.00986445 33.7191 0.00995363C33.7819 0.0100059 33.8447 0.0100582 33.9095 0.010112C34.0037 0.0101846 34.0037 0.0101846 34.0998 0.0102586C34.1625 0.0103038 34.2253 0.0103489 34.29 0.0103955C34.3527 0.0104387 34.4154 0.010482 34.48 0.0105266C34.5427 0.010568 34.6053 0.0106093 34.6698 0.010652C34.7637 0.0107112 34.7637 0.0107112 34.8594 0.0107717C34.9532 0.0108295 34.9532 0.0108295 35.0488 0.0108884C35.1112 0.010927 35.1736 0.0109656 35.238 0.0110053C35.3314 0.0110625 35.3314 0.0110625 35.4268 0.0111209C35.4889 0.0111584 35.5511 0.0111959 35.6151 0.0112345C35.6771 0.0112715 35.7391 0.0113084 35.803 0.0113465C35.8649 0.0113827 35.9267 0.0114189 35.9905 0.0114561C36.0521 0.0114921 36.1138 0.011528 36.1773 0.0115651C36.2694 0.0116191 36.2694 0.0116191 36.3634 0.0116741C36.4551 0.0117289 36.4551 0.0117289 36.5487 0.0117847C36.6398 0.0118411 36.6398 0.0118411 36.7328 0.0118987C36.8235 0.0119561 36.8235 0.0119561 36.9161 0.0120148C36.9763 0.0120535 37.0365 0.0120922 37.0985 0.0121321C37.1585 0.0121713 37.2185 0.0122105 37.2802 0.0122509C37.34 0.0122904 37.3998 0.01233 37.4613 0.0123708C37.5506 0.0124307 37.5506 0.0124307 37.6417 0.0124918C37.7306 0.0125523 37.7306 0.0125523 37.8213 0.0126141C37.9097 0.0126749 37.9097 0.0126749 38 0.0127369C38.0587 0.0127773 38.1173 0.0128176 38.1778 0.0128592C38.2362 0.0128999 38.2946 0.0129406 38.3548 0.0129826C38.4421 0.0130449 38.4421 0.0130449 38.5311 0.0131084C38.5891 0.0131508 38.6471 0.0131932 38.7068 0.0132369C38.7646 0.0132802 38.8224 0.0133235 38.8819 0.0133682C38.9683 0.0134353 38.9683 0.0134353 39.0565 0.0135037C39.114 0.0135501 39.1715 0.0135965 39.2308 0.0136443C39.3172 0.0137175 39.3172 0.0137175 39.4054 0.0137923C39.4923 0.0138713 39.4923 0.0138713 39.581 0.013952C39.639 0.0140071 39.697 0.0140622 39.7568 0.014119C39.8146 0.0141757 39.8724 0.0142324 39.932 0.0142908C40.0183 0.0143777 40.0183 0.0143777 40.1064 0.0144664C40.1635 0.0145252 40.2207 0.0145839 40.2796 0.0146444C40.3647 0.0147335 40.3647 0.0147335 40.4515 0.0148244C40.5358 0.0149143 40.5358 0.0149143 40.6218 0.0150061C40.7051 0.0150962 40.7051 0.0150962 40.7902 0.0151882C40.8722 0.0152777 40.8722 0.0152777 40.9558 0.015369C41.0098 0.0154286 41.0637 0.0154881 41.1193 0.0155494C41.1726 0.0156089 41.2259 0.0156684 41.2808 0.0157297C41.3333 0.0157891 41.3859 0.0158485 41.4401 0.0159097C41.5179 0.0159986 41.5179 0.0159986 41.5973 0.0160894C41.6485 0.0161485 41.6997 0.0162076 41.7525 0.0162685C41.803 0.0163273 41.8536 0.0163862 41.9057 0.0164468C41.9809 0.0165347 41.9809 0.0165347 42.0576 0.0166245C42.1076 0.0166831 42.1576 0.0167418 42.2091 0.0168022C42.2585 0.0168604 42.3079 0.0169186 42.3588 0.0169785C42.4073 0.017036 42.4559 0.0170934 42.5059 0.0171526C42.5533 0.017209 42.6006 0.0172654 42.6495 0.0173236C42.74 0.0174322 42.8304 0.0175408 42.9236 0.0176527C43.0089 0.0177563 43.0942 0.0178599 43.1821 0.0179666C43.304 0.0181169 43.304 0.0181169 43.4284 0.0182702C43.5012 0.0183607 43.574 0.0184513 43.6489 0.0185446C43.7124 0.0186242 43.7758 0.0187038 43.8412 0.0187858C43.8854 0.0188416 43.9296 0.0188973 43.9752 0.0189548C43.9759 0.113738 43.9759 0.113738 43.9766 0.210436C43.9772 0.300164 43.9779 0.389893 43.9786 0.48234C43.9789 0.531652 43.9792 0.580964 43.9796 0.631769C43.9799 0.683744 43.9803 0.735719 43.9806 0.789269C43.981 0.844025 43.9813 0.898781 43.9817 0.955197C43.982 1.01147 43.9823 1.06775 43.9827 1.12573C43.9829 1.18205 43.9832 1.23837 43.9835 1.2964C43.9837 1.35352 43.984 1.41064 43.9842 1.4695C43.9845 1.52771 43.9847 1.58593 43.9849 1.64591C43.9852 1.70514 43.9854 1.76437 43.9856 1.82539C43.9858 1.88583 43.986 1.94628 43.9862 2.00855C43.9865 2.06966 43.9867 2.13077 43.9869 2.19373C43.9872 2.25515 43.9874 2.31657 43.9876 2.37984C43.9879 2.4412 43.9882 2.50256 43.9885 2.56577C43.989 2.62651 43.9894 2.68726 43.9899 2.74984C43.9903 2.81018 43.9908 2.87052 43.9913 2.93268C43.9918 2.99267 43.9922 3.05265 43.9927 3.11446C43.9931 3.17403 43.9935 3.2336 43.994 3.29497C43.9942 3.35418 43.9944 3.41338 43.9947 3.47438C43.9949 3.56222 43.9949 3.56222 43.9951 3.65182C43.9952 3.70954 43.9954 3.76726 43.9955 3.82673C43.9957 3.88337 43.9959 3.94001 43.9961 3.99836C43.9966 4.05354 43.9972 4.10872 43.9978 4.16557C43.9983 4.21949 43.9989 4.27341 43.9994 4.32897C43.9996 4.38173 43.9998 4.4345 44 4.48886C43.9997 4.56616 43.9997 4.56616 43.9995 4.64501C43.9989 4.69522 43.9983 4.74544 43.9978 4.79717C43.9965 4.84616 43.9951 4.89514 43.9938 4.94561C43.9876 5.04009 43.9815 5.13456 43.9752 5.2319C43.9605 5.32311 43.9458 5.41431 43.9307 5.50828C43.9032 5.6349 43.9032 5.6349 43.875 5.76408C43.8569 5.83743 43.8387 5.91077 43.82 5.98634C43.8006 6.05236 43.7812 6.11837 43.7611 6.18639C43.7386 6.25024 43.7161 6.3141 43.6929 6.37989C43.6721 6.43302 43.6513 6.48614 43.6299 6.54087C43.606 6.59436 43.5822 6.64784 43.5576 6.70294C43.5321 6.75659 43.5065 6.81025 43.4803 6.86554C43.4528 6.92407 43.4254 6.9826 43.3971 7.04291C43.368 7.10278 43.3389 7.16265 43.3089 7.22433C43.2631 7.31325 43.2631 7.31325 43.2164 7.40398C43.1843 7.46253 43.1522 7.52108 43.1191 7.5814C43.0851 7.63834 43.051 7.69528 43.016 7.75395C42.9808 7.80954 42.9455 7.86513 42.9093 7.92241C42.8735 7.97662 42.8377 8.03084 42.8008 8.08669C42.7646 8.13952 42.7284 8.19235 42.6911 8.24678C42.6547 8.29853 42.6183 8.35027 42.5808 8.40358C42.5448 8.45329 42.5089 8.50301 42.4718 8.55424C42.4189 8.62508 42.4189 8.62508 42.3649 8.69735C42.3313 8.74098 42.2977 8.78462 42.2631 8.82957C42.2037 8.90226 42.1444 8.97494 42.0833 9.04984C42.0293 9.11192 41.9754 9.17401 41.9197 9.23798C41.8683 9.29429 41.8169 9.35061 41.764 9.40863C41.7168 9.45983 41.6696 9.51103 41.621 9.56379C41.5805 9.6112 41.5399 9.65862 41.4981 9.70748C41.4592 9.75395 41.4203 9.80042 41.3803 9.8483C41.3407 9.89505 41.3012 9.94181 41.2604 9.98998C41.2146 10.0432 41.1688 10.0964 41.1217 10.1512C41.0597 10.221 40.9977 10.2909 40.9338 10.3628C40.9004 10.4002 40.8671 10.4376 40.8327 10.4761C40.7986 10.5143 40.7644 10.5524 40.7293 10.5917C40.695 10.63 40.6608 10.6682 40.6255 10.7077C40.5752 10.764 40.5752 10.764 40.5239 10.8214C40.4622 10.891 40.4005 10.9606 40.3369 11.0322C40.2936 11.0829 40.2503 11.1335 40.2057 11.1857C40.1681 11.2304 40.1305 11.2752 40.0917 11.3213C40.0536 11.3667 40.0154 11.412 39.9761 11.4587C39.9304 11.5118 39.8847 11.5649 39.8376 11.6196C39.79 11.6731 39.79 11.6731 39.7414 11.7278C39.7061 11.7671 39.6708 11.8065 39.6344 11.847C39.5978 11.8878 39.5611 11.9285 39.5234 11.9705C39.4858 12.0122 39.4482 12.0539 39.4096 12.0968C39.3719 12.1386 39.3343 12.1803 39.2956 12.2233C39.2589 12.2641 39.2222 12.3049 39.1844 12.3469C39.1314 12.406 39.1314 12.406 39.0774 12.4662C39.0458 12.5018 39.0141 12.5374 38.9815 12.5741C38.9366 12.6263 38.8918 12.6786 38.8455 12.7324C38.808 12.7771 38.7705 12.8217 38.7318 12.8678C38.6943 12.9124 38.6568 12.9571 38.6181 13.0031C38.5733 13.0554 38.5284 13.1076 38.4822 13.1615C38.4505 13.197 38.4189 13.2326 38.3863 13.2693C38.3333 13.3284 38.3333 13.3284 38.2793 13.3886C38.2426 13.4294 38.2059 13.4702 38.1681 13.5122C38.1117 13.5748 38.1117 13.5748 38.0541 13.6387C37.9977 13.7013 37.9977 13.7013 37.9402 13.7652C37.9035 13.806 37.8668 13.8468 37.829 13.8888C37.776 13.9478 37.776 13.9478 37.722 14.0081C37.6903 14.0437 37.6587 14.0793 37.6261 14.1159C37.5812 14.1682 37.5364 14.2204 37.4901 14.2743C37.4526 14.3189 37.4151 14.3636 37.3764 14.4096C37.3389 14.4543 37.3014 14.499 37.2627 14.545C37.2179 14.5972 37.173 14.6495 37.1267 14.7033C37.0951 14.7389 37.0635 14.7745 37.0309 14.8112C36.9779 14.8702 36.9779 14.8702 36.9239 14.9305C36.8872 14.9713 36.8505 15.0121 36.8127 15.0541C36.7751 15.0958 36.7375 15.1376 36.6987 15.1806C36.6612 15.2222 36.6236 15.2639 36.5849 15.3069C36.5483 15.3476 36.5116 15.3884 36.4738 15.4304C36.4385 15.4697 36.4032 15.5091 36.3669 15.5496C36.3193 15.6032 36.3193 15.6032 36.2707 15.6578C36.225 15.7109 36.1793 15.764 36.1322 15.8187C36.094 15.864 36.0559 15.9094 36.0166 15.9561C35.9788 16.001 35.941 16.046 35.902 16.0923C35.8589 16.1428 35.8158 16.1932 35.7713 16.2452C35.7113 16.313 35.6512 16.3809 35.5894 16.4508C35.5402 16.506 35.5402 16.506 35.49 16.5623C35.4563 16.6 35.4226 16.6377 35.3879 16.6765C35.3542 16.7143 35.3204 16.752 35.2856 16.7909C35.2353 16.8473 35.2353 16.8473 35.1839 16.9048C35.1507 16.9421 35.1174 16.9793 35.0832 17.0177C35.0354 17.0714 35.0354 17.0714 34.9866 17.1262C34.9303 17.1902 34.8741 17.2542 34.8161 17.3201C34.7635 17.3803 34.7109 17.4405 34.6567 17.5025C34.6048 17.562 34.553 17.6214 34.4995 17.6826C34.4484 17.7413 34.3973 17.8 34.3446 17.8605C34.2935 17.9191 34.2423 17.9778 34.1896 18.0383C34.1378 18.0977 34.0859 18.1571 34.0325 18.2184C33.9799 18.2786 33.9273 18.3388 33.8731 18.4008C33.8168 18.4648 33.7605 18.5287 33.7025 18.5947C33.6547 18.6484 33.6547 18.6484 33.606 18.7032C33.5727 18.7405 33.5395 18.7777 33.5053 18.8161C33.4549 18.8724 33.4549 18.8724 33.4035 18.93C33.3698 18.9677 33.336 19.0055 33.3013 19.0444C33.2676 19.0821 33.2339 19.1198 33.1992 19.1586C33.1664 19.1954 33.1336 19.2322 33.0998 19.2701C33.0397 19.338 32.9797 19.4058 32.9178 19.4757C32.8747 19.5262 32.8316 19.5766 32.7871 19.6286C32.7493 19.6736 32.7115 19.7185 32.6726 19.7648C32.6344 19.8102 32.5963 19.8555 32.557 19.9022C32.5113 19.9553 32.4656 20.0084 32.4185 20.0631C32.3709 20.1166 32.3709 20.1166 32.3223 20.1713C32.287 20.2106 32.2517 20.25 32.2153 20.2905C32.1787 20.3313 32.142 20.372 32.1043 20.414C32.0667 20.4557 32.0291 20.4974 31.9904 20.5403C31.9528 20.5821 31.9152 20.6238 31.8765 20.6668C31.8398 20.7076 31.8031 20.7484 31.7653 20.7904C31.73 20.8298 31.6947 20.8692 31.6583 20.9097C31.6266 20.9453 31.595 20.9809 31.5624 21.0176C31.5175 21.0698 31.4727 21.1221 31.4264 21.1759C31.3889 21.2206 31.3514 21.2652 31.3127 21.3113C31.2761 21.3524 31.2394 21.3936 31.2017 21.436C31.1559 21.4917 31.1102 21.5475 31.0631 21.605C31.0136 21.6822 30.9641 21.7595 30.913 21.8392C30.87 21.9017 30.87 21.9017 30.8262 21.9656C30.7941 22.0082 30.762 22.0508 30.729 22.0947C30.6929 22.138 30.6568 22.1812 30.6196 22.2258C30.5792 22.2671 30.5387 22.3084 30.497 22.3509C30.452 22.3889 30.4071 22.4268 30.3607 22.4659C30.31 22.4968 30.2593 22.5277 30.207 22.5594C30.1485 22.5771 30.0899 22.5948 30.0296 22.613C29.9333 22.6282 29.9333 22.6282 29.8352 22.6436C29.7667 22.6493 29.6983 22.6551 29.6278 22.661C29.5557 22.6632 29.4835 22.6655 29.4091 22.6678C29.3341 22.6686 29.2591 22.6693 29.1818 22.6701C29.1041 22.6693 29.0263 22.6685 28.9462 22.6676C28.8258 22.664 28.8258 22.664 28.7029 22.6604C28.6206 22.6578 28.5384 22.6553 28.4537 22.6527C28.3702 22.6518 28.2868 22.6509 28.2008 22.65C28.1161 22.6495 28.0313 22.6491 27.9439 22.6486C27.8578 22.6479 27.7716 22.6472 27.6829 22.6464C27.5956 22.6454 27.5083 22.6444 27.4184 22.6433C27.286 22.6406 27.286 22.6406 27.151 22.6378C27.0174 22.6347 27.0174 22.6347 26.8812 22.6314C26.7916 22.6293 26.7021 22.6272 26.6098 22.625C26.5198 22.623 26.4297 22.6211 26.3369 22.6191C26.201 22.6171 26.201 22.6171 26.0624 22.6151C25.9266 22.6135 25.9266 22.6135 25.7881 22.6119C25.698 22.6109 25.608 22.6099 25.5152 22.6089C25.4262 22.608 25.3372 22.607 25.2454 22.606C25.1581 22.605 25.0708 22.6041 24.9809 22.603C24.8951 22.602 24.8092 22.6009 24.7208 22.5999C24.6365 22.5988 24.5523 22.5977 24.4655 22.5966C24.3823 22.5954 24.2992 22.5942 24.2135 22.593C24.0887 22.5908 24.0887 22.5908 23.9613 22.5886C23.8803 22.5871 23.7992 22.5855 23.7157 22.5839C23.6387 22.5824 23.5617 22.5808 23.4824 22.5792C23.4094 22.5777 23.3363 22.5762 23.261 22.5746C23.1559 22.5723 23.1559 22.5723 23.0488 22.57C22.9543 22.568 22.9543 22.568 22.8579 22.5659C22.7173 22.5627 22.7173 22.5627 22.5739 22.5594C22.5734 22.505 22.5729 22.4506 22.5724 22.3945C22.5718 22.3172 22.5711 22.2399 22.5705 22.1602C22.5698 22.0729 22.5691 21.9855 22.5684 21.8955C22.5677 21.7996 22.567 21.7038 22.5664 21.605C22.5661 21.5562 22.5658 21.5074 22.5655 21.4572C22.5653 21.4077 22.5651 21.3582 22.5648 21.3072C22.5646 21.2568 22.5643 21.2063 22.5641 21.1543C22.5639 21.1029 22.5637 21.0516 22.5634 20.9987C22.5632 20.9462 22.563 20.8938 22.5628 20.8397C22.5626 20.7867 22.5623 20.7337 22.5621 20.6791C22.5619 20.6258 22.5616 20.5726 22.5614 20.5177C22.5611 20.4646 22.5608 20.4115 22.5605 20.3568C22.5601 20.3044 22.5596 20.2521 22.5592 20.1982C22.5585 20.1203 22.5585 20.1203 22.5577 20.0408C22.5573 19.9891 22.5568 19.9375 22.5563 19.8842C22.5559 19.8329 22.5555 19.7816 22.5551 19.7287C22.5548 19.6777 22.5544 19.6267 22.5541 19.5742C22.5539 19.5236 22.5537 19.473 22.5534 19.4208C22.5533 19.3707 22.5532 19.3205 22.553 19.2688C22.553 19.219 22.553 19.1691 22.553 19.1178C22.5531 19.068 22.5531 19.0181 22.5532 18.9668C22.5534 18.9176 22.5537 18.8683 22.5539 18.8176C22.555 18.7222 22.5561 18.6268 22.5572 18.5285C22.5592 18.4383 22.5612 18.3482 22.5633 18.2552C22.5668 18.1734 22.5703 18.0916 22.5739 18.0073C22.5797 17.9391 22.5855 17.8709 22.5915 17.8006C22.5988 17.7412 22.606 17.6818 22.6135 17.6206C22.6218 17.5672 22.63 17.5138 22.6385 17.4588C22.6475 17.4106 22.6565 17.3623 22.6658 17.3127C22.6854 17.2264 22.7049 17.1401 22.7251 17.0512C22.7458 16.979 22.7665 16.9069 22.7879 16.8325C22.8076 16.7704 22.8272 16.7083 22.8475 16.6443C22.8777 16.5634 22.8777 16.5634 22.9086 16.4809C22.9299 16.4337 22.9513 16.3864 22.9733 16.3377C22.996 16.292 23.0187 16.2463 23.042 16.1993C23.0664 16.1481 23.0909 16.0969 23.116 16.0441C23.1417 15.9921 23.1674 15.94 23.1939 15.8864C23.2339 15.8107 23.2339 15.8107 23.2747 15.7334C23.3024 15.6842 23.3301 15.635 23.3586 15.5844C23.4016 15.5136 23.4016 15.5136 23.4455 15.4414C23.4748 15.3957 23.5042 15.3501 23.5344 15.303C23.5641 15.2587 23.5938 15.2145 23.6244 15.1688C23.6544 15.1258 23.6844 15.0827 23.7153 15.0383C23.7457 14.996 23.7761 14.9537 23.8074 14.9101C23.8375 14.8692 23.8676 14.8283 23.8986 14.7862C23.9558 14.7104 24.013 14.6346 24.072 14.5565C24.1189 14.4935 24.1658 14.4306 24.2141 14.3657C24.2584 14.3075 24.3027 14.2493 24.3484 14.1894C24.4171 14.1025 24.4171 14.1025 24.4872 14.0138C24.5385 13.9506 24.5898 13.8874 24.6427 13.8223C24.6737 13.7844 24.7048 13.7466 24.7368 13.7077C24.7703 13.6671 24.8038 13.6266 24.8383 13.5848C24.8732 13.5427 24.9081 13.5007 24.944 13.4574C24.9799 13.4142 25.0158 13.3711 25.0529 13.3267C25.0891 13.2833 25.1254 13.2399 25.1627 13.1952C25.1994 13.1514 25.2361 13.1076 25.2738 13.0625C25.3109 13.0183 25.348 12.9741 25.3862 12.9285C25.4233 12.8843 25.4605 12.84 25.4987 12.7943C25.5356 12.7503 25.5724 12.7064 25.6104 12.661C25.647 12.6173 25.6837 12.5735 25.7214 12.5285C25.7757 12.4634 25.7757 12.4634 25.8312 12.3971C25.8672 12.354 25.9031 12.311 25.9401 12.2666C25.976 12.2236 26.0119 12.1806 26.0489 12.1363C26.1015 12.0731 26.1015 12.0731 26.1552 12.0085C26.1892 11.9675 26.2232 11.9264 26.2582 11.8842C26.2901 11.8453 26.3219 11.8065 26.3548 11.7664C26.4088 11.6987 26.4629 11.6309 26.5186 11.5611C26.569 11.4971 26.6194 11.4331 26.6713 11.3672C26.7223 11.3027 26.7732 11.2381 26.8257 11.1716C26.9104 11.0663 26.9104 11.0663 26.9968 10.9588C27.0311 10.9175 27.0654 10.8761 27.1007 10.8335C27.1376 10.7895 27.1745 10.7455 27.2125 10.7001C27.2507 10.6547 27.289 10.6093 27.3284 10.5625C27.3676 10.5161 27.4067 10.4697 27.4471 10.4219C27.5061 10.3521 27.5061 10.3521 27.5663 10.2809C27.6058 10.2342 27.6453 10.1875 27.6859 10.1394C27.7453 10.0693 27.7453 10.0693 27.8058 9.99769C27.8449 9.95142 27.8839 9.90515 27.9242 9.85747C27.981 9.78992 27.981 9.78992 28.039 9.72099C28.076 9.67678 28.1131 9.63257 28.1513 9.58702C28.1877 9.54352 28.2241 9.50002 28.2616 9.4552C28.2974 9.41229 28.3332 9.36938 28.3701 9.32517C28.4057 9.28245 28.4413 9.23973 28.478 9.19571C28.5127 9.15391 28.5475 9.11212 28.5832 9.06905C28.6168 9.02848 28.6503 8.98792 28.6848 8.94612C28.7163 8.90766 28.7478 8.8692 28.7802 8.82957C28.8342 8.7619 28.8882 8.69423 28.9438 8.6245C28.9943 8.56043 29.0448 8.49636 29.0968 8.43034C29.1477 8.36589 29.1985 8.30143 29.2509 8.23503C29.3075 8.1647 29.364 8.09438 29.4223 8.02193C29.4569 7.9802 29.4916 7.93848 29.5273 7.89549C29.5647 7.85099 29.602 7.8065 29.6405 7.76065C29.6791 7.71488 29.7177 7.66911 29.7574 7.62195C29.7969 7.57525 29.8364 7.52855 29.8771 7.48044C29.9167 7.43356 29.9564 7.38667 29.9973 7.33837C30.0368 7.29165 30.0763 7.24493 30.117 7.1968C30.1561 7.15045 30.1953 7.10411 30.2356 7.05637C30.2732 7.01157 30.3109 6.96676 30.3497 6.9206C30.4013 6.85837 30.4013 6.85837 30.454 6.79488C30.4868 6.75507 30.5196 6.71526 30.5534 6.67424C30.5855 6.63513 30.6176 6.59601 30.6507 6.55572C30.6823 6.51713 30.7139 6.47853 30.7465 6.43877C30.778 6.40028 30.8095 6.36178 30.842 6.32212C30.8895 6.26416 30.8895 6.26416 30.9379 6.20503C30.9698 6.16614 31.0017 6.12725 31.0346 6.08719C31.0675 6.04723 31.1005 6.00728 31.1344 5.96612C31.1696 5.9238 31.2049 5.88148 31.2412 5.83788C31.2774 5.79455 31.3136 5.75121 31.3509 5.70656C31.3873 5.66305 31.4237 5.61954 31.4612 5.5747C31.4975 5.53124 31.5339 5.48777 31.5713 5.44299C31.6073 5.4 31.6432 5.357 31.6802 5.31271C31.7155 5.27043 31.7507 5.22814 31.787 5.18458C31.8214 5.14316 31.8558 5.10174 31.8912 5.05907C31.9403 4.99925 31.9403 4.99925 31.9904 4.93821C32.0779 4.82876 32.0779 4.82876 32.1671 4.71709C32.2206 4.64923 32.2742 4.58137 32.3293 4.51145C32.3745 4.45343 32.4198 4.39542 32.4664 4.33564C32.5212 4.26797 32.576 4.2003 32.6325 4.13058C32.6806 4.07423 32.7288 4.01788 32.7784 3.95982C32.8306 3.89928 32.8829 3.83874 32.9368 3.77637C32.987 3.71848 33.0372 3.66059 33.089 3.60094C33.1455 3.53601 33.1455 3.53601 33.2032 3.46978C33.1097 3.46324 33.0163 3.45671 32.9201 3.44997C32.827 3.44401 32.827 3.44401 32.732 3.43793C32.6639 3.43396 32.5957 3.42999 32.5255 3.4259C32.4207 3.4207 32.4207 3.4207 32.3139 3.41539C32.2414 3.41233 32.1688 3.40927 32.0941 3.40611C32.0188 3.40348 31.9434 3.40086 31.8658 3.39815C31.7892 3.39604 31.7126 3.39394 31.6338 3.39177C31.5575 3.39015 31.4813 3.38853 31.4028 3.38686C31.3271 3.38611 31.2513 3.38537 31.1732 3.3846C31.0611 3.38533 31.0611 3.38533 30.9467 3.38607C30.8364 3.38875 30.8364 3.38875 30.7239 3.39148C30.6512 3.39453 30.5785 3.39757 30.5036 3.40071C30.4341 3.4057 30.3647 3.41069 30.2931 3.41582C30.2281 3.42309 30.1631 3.43036 30.0961 3.43785C30.0385 3.44839 29.981 3.45892 29.9217 3.46978C29.8391 3.50396 29.7565 3.53814 29.6714 3.57335C29.6107 3.61725 29.5499 3.66116 29.4872 3.70639C29.4377 3.75594 29.3881 3.8055 29.337 3.85655C29.2755 3.93768 29.2755 3.93768 29.2127 4.02044C29.1738 4.07685 29.1349 4.13325 29.0949 4.19136C29.0408 4.27825 29.0408 4.27825 28.9856 4.3669C28.9524 4.42577 28.9193 4.48464 28.8851 4.54529C28.8332 4.63076 28.8332 4.63076 28.7802 4.71795C28.7386 4.76887 28.6969 4.81979 28.654 4.87225C28.6095 4.92052 28.565 4.96879 28.5191 5.01852C28.474 5.06603 28.4289 5.11354 28.3824 5.1625C28.3145 5.2332 28.3145 5.2332 28.2452 5.30532C28.2014 5.35321 28.1575 5.4011 28.1123 5.45045C28.0686 5.49872 28.0249 5.54698 27.9799 5.59672C27.9358 5.64517 27.8917 5.69363 27.8462 5.74356C27.8013 5.79278 27.7564 5.84199 27.7102 5.8927C27.6638 5.94343 27.6175 5.99416 27.5697 6.04642C27.5227 6.09791 27.4756 6.1494 27.4271 6.20245C27.3797 6.25425 27.3323 6.30606 27.2834 6.35944C27.2359 6.41136 27.1884 6.46329 27.1395 6.51678C27.0923 6.56842 27.045 6.62007 26.9964 6.67327C26.9257 6.75055 26.9257 6.75055 26.8536 6.8294C26.7831 6.90652 26.7831 6.90652 26.7111 6.98521C26.6641 7.03657 26.6172 7.08794 26.5688 7.14087C26.5216 7.19243 26.4745 7.24398 26.4259 7.2971C26.3557 7.37395 26.3557 7.37395 26.284 7.45234C26.2379 7.50288 26.1918 7.55342 26.1443 7.60549C26.099 7.65508 26.0537 7.70468 26.007 7.75578C25.9404 7.82818 25.9404 7.82818 25.8724 7.90205C25.8294 7.94899 25.7863 7.99593 25.742 8.0443C25.6799 8.11255 25.6799 8.11255 25.6166 8.18218C25.5777 8.22622 25.5388 8.27025 25.4987 8.31562C25.4636 8.35833 25.4284 8.40103 25.3922 8.44504C25.3433 8.50619 25.3433 8.50619 25.2933 8.56858C25.2331 8.64259 25.1729 8.7166 25.1108 8.79286C25.0274 8.88684 25.0274 8.88684 24.9422 8.98272C24.8646 9.05229 24.8646 9.05229 24.7853 9.12326C24.7358 9.1454 24.6862 9.16755 24.6351 9.19037C24.5638 9.19804 24.5638 9.19804 24.4911 9.20586C24.4456 9.19847 24.4 9.19109 24.3531 9.18349C24.3074 9.16361 24.2617 9.14373 24.2146 9.12326C24.1406 9.07527 24.1406 9.07527 24.065 9.02632C24.0158 8.98562 23.9666 8.94492 23.9159 8.90299C23.8688 8.85529 23.8218 8.80759 23.7732 8.75844C23.7306 8.70923 23.6879 8.66001 23.6439 8.6093C23.5932 8.54684 23.5932 8.54684 23.5414 8.48311C23.512 8.43995 23.4825 8.39679 23.4522 8.35233C23.4249 8.30302 23.3976 8.25371 23.3695 8.2029C23.3423 8.14318 23.3152 8.08346 23.2873 8.02193C23.2564 7.94328 23.2256 7.86463 23.1939 7.7836C23.1629 7.69416 23.1319 7.60472 23.1 7.51257C23.0851 7.46589 23.0702 7.41922 23.0549 7.37114C23.0405 7.32307 23.0262 7.275 23.0114 7.22548C22.9976 7.17596 22.9838 7.12645 22.9696 7.07544C22.9568 7.02434 22.9439 6.97325 22.9306 6.9206C22.919 6.86733 22.9073 6.81406 22.8954 6.75917C22.8847 6.70502 22.8741 6.65087 22.8631 6.59508C22.8533 6.5407 22.8434 6.48632 22.8332 6.43029C22.8241 6.37706 22.8151 6.32383 22.8057 6.26898C22.7975 6.2193 22.7892 6.16962 22.7808 6.11843C22.7732 6.06987 22.7656 6.02131 22.7578 5.97128C22.7508 5.92198 22.7438 5.87267 22.7366 5.82188C22.73 5.77256 22.7234 5.72324 22.7166 5.67243C22.7101 5.62458 22.7036 5.57673 22.697 5.52744C22.6908 5.47695 22.6847 5.42646 22.6784 5.37444C22.6727 5.31919 22.667 5.26395 22.6611 5.20702C22.6559 5.14254 22.6506 5.07807 22.6452 5.01164C22.6404 4.93031 22.6356 4.84899 22.6307 4.7652C22.6242 4.62895 22.6242 4.62895 22.6176 4.48994C22.6139 4.39428 22.6101 4.29861 22.6063 4.20005C22.6046 4.15049 22.6029 4.10092 22.6011 4.04985C22.5995 3.99926 22.5978 3.94867 22.5962 3.89654C22.5945 3.84488 22.5929 3.79321 22.5912 3.73998C22.5889 3.6617 22.5889 3.6617 22.5865 3.58185C22.5851 3.52964 22.5838 3.47743 22.5824 3.42363C22.5812 3.37157 22.5801 3.3195 22.5789 3.26586C22.578 3.21404 22.5771 3.16222 22.5761 3.10883C22.5755 3.05797 22.5749 3.00711 22.5742 2.95472C22.5741 2.85817 22.574 2.76162 22.5739 2.66214C22.576 2.57874 22.5781 2.49535 22.5802 2.40943C22.5838 2.33372 22.5874 2.25802 22.5912 2.18002C22.5959 2.10908 22.6007 2.03814 22.6056 1.96504C22.6113 1.89828 22.617 1.83151 22.6229 1.76272C22.6292 1.69818 22.6355 1.63364 22.6419 1.56714C22.6491 1.50599 22.6562 1.44485 22.6636 1.38185C22.6758 1.2961 22.6758 1.2961 22.6882 1.20862C22.6976 1.15524 22.7069 1.10186 22.7166 1.04686C22.7333 0.972469 22.7333 0.972469 22.7505 0.896575C22.7626 0.850766 22.7748 0.804958 22.7873 0.757762C22.8125 0.677502 22.8377 0.597243 22.8637 0.514552C22.8881 0.449057 22.9124 0.383563 22.9375 0.316084C22.9588 0.266489 22.98 0.216895 23.0019 0.165798C23.0254 0.11734 23.049 0.0688816 23.0732 0.0189548Z" fill="white"/>
<path d="M7.52166 0.0188768C7.57003 0.0166681 7.6184 0.0144593 7.66824 0.0121837C7.71469 0.0114111 7.76114 0.0106384 7.809 0.0098424C7.85674 0.00969622 7.90449 0.00955003 7.95369 0.00939941C8.02874 0.00972021 8.02874 0.00972021 8.10531 0.0100475C8.16033 0.00998476 8.21536 0.00992203 8.27205 0.00985739C8.33015 0.00981919 8.38826 0.009781 8.44812 0.00974164C8.53834 0.00993117 8.53835 0.00993117 8.63039 0.0101245C8.69267 0.0102621 8.75496 0.0103998 8.81913 0.0105416C8.91543 0.0105567 8.91543 0.0105567 9.01369 0.0105722C9.07969 0.0105514 9.14569 0.0105305 9.2137 0.0105091C9.28134 0.0105051 9.34899 0.0105011 9.41868 0.010497C9.48786 0.0105172 9.55704 0.0105375 9.62831 0.0105584C9.73431 0.010679 9.73431 0.010679 9.84246 0.0108022C9.91427 0.010905 9.98609 0.0110079 10.0601 0.0111139C10.1328 0.011219 10.2056 0.011324 10.2805 0.0114323C10.3538 0.0115228 10.427 0.0116134 10.5025 0.0117067C10.6122 0.0117721 10.6122 0.0117721 10.7241 0.0118388C10.7976 0.0118626 10.871 0.0118863 10.9467 0.0119107C11.0207 0.0119298 11.0947 0.011949 11.171 0.0119686C11.2456 0.0119861 11.3202 0.0120035 11.397 0.0120215C11.5099 0.0120581 11.5099 0.0120581 11.6252 0.0120953C11.739 0.0121398 11.739 0.0121398 11.8551 0.0121851C11.9315 0.0122192 12.008 0.0122532 12.0867 0.0122882C12.2022 0.0123553 12.2022 0.0123553 12.3201 0.0124237C12.3978 0.0124883 12.4754 0.0125528 12.5555 0.0126193C12.6337 0.0126943 12.7118 0.0127693 12.7924 0.0128466C12.871 0.0129261 12.9496 0.0130056 13.0305 0.0130876C13.1094 0.0131702 13.1883 0.0132528 13.2696 0.0133379C13.3883 0.0134622 13.3883 0.0134622 13.5094 0.013589C13.5887 0.0136703 13.668 0.0137516 13.7497 0.0138353C13.8292 0.0139139 13.9087 0.0139924 13.9906 0.0140734C14.11 0.0141796 14.11 0.0141796 14.2319 0.0142879C14.3116 0.0143432 14.3914 0.0143985 14.4735 0.0144554C14.5932 0.0145256 14.5932 0.0145256 14.7152 0.0145971C14.8346 0.0146605 14.8346 0.0146605 14.9563 0.0147251C15.0359 0.0147642 15.1155 0.0148033 15.1975 0.0148436C15.3178 0.0149024 15.3178 0.0149024 15.4405 0.0149624C15.5201 0.0150003 15.5997 0.0150382 15.6818 0.0150772C15.7605 0.0151135 15.8392 0.0151497 15.9203 0.0151871C15.9965 0.0152216 16.0727 0.0152562 16.1511 0.0152917C16.2571 0.0153394 16.2571 0.0153394 16.3651 0.015388C16.4339 0.0154197 16.5026 0.0154513 16.5735 0.0154839C16.7134 0.0155536 16.8534 0.0156233 16.9977 0.0156951C17.4771 0.0159923 17.4771 0.0159923 17.9662 0.0162956C19.3995 0.0175733 19.3995 0.0175733 20.8618 0.0188768C20.8618 2.56294 20.8618 5.10701 20.8618 7.72816C19.8355 7.73498 19.8355 7.73498 18.7885 7.74193C18.5748 7.74394 18.3611 7.74594 18.1409 7.74801C18.0088 7.7485 18.0088 7.7485 17.874 7.749C17.7495 7.74934 17.7495 7.74934 17.6223 7.74968C17.4919 7.75137 17.4919 7.75137 17.3589 7.75309C17.2287 7.75313 17.2287 7.75313 17.0959 7.75317C17.012 7.7512 16.9281 7.74924 16.8416 7.74721C16.7558 7.74092 16.67 7.73464 16.5815 7.72816C16.5347 7.72156 16.4878 7.71496 16.4395 7.70816C16.3677 7.69594 16.3677 7.69594 16.2944 7.68347C16.2467 7.67438 16.1991 7.66529 16.15 7.65592C16.1035 7.64638 16.0571 7.63684 16.0093 7.62701C15.9246 7.60868 15.8398 7.59035 15.7525 7.57146C15.673 7.55048 15.5934 7.52951 15.5115 7.5079C15.4319 7.48016 15.3523 7.45242 15.2704 7.42384C15.169 7.38368 15.169 7.38368 15.0656 7.3427C14.9973 7.31109 14.929 7.27948 14.8586 7.24691C14.7915 7.21189 14.7245 7.17687 14.6554 7.14079C14.5516 7.08145 14.5516 7.08145 14.4456 7.02091C14.378 6.97869 14.3104 6.93648 14.2408 6.89299C14.1767 6.84879 14.1126 6.80459 14.0465 6.75905C13.9885 6.71542 13.9305 6.67179 13.8707 6.62684C13.8237 6.58851 13.7767 6.55018 13.7283 6.51068C13.687 6.47178 13.6457 6.43288 13.6032 6.39281C13.5458 6.32949 13.5458 6.32949 13.4873 6.26489C13.449 6.21473 13.4108 6.16457 13.3713 6.11289C13.3272 6.04607 13.2831 5.97925 13.2376 5.9104C13.1714 5.79938 13.1714 5.79938 13.1038 5.68612C13.0424 5.57141 13.0424 5.57141 12.9798 5.45438C12.9442 5.38094 12.9086 5.30749 12.872 5.23182C12.846 5.17201 12.8199 5.11219 12.7931 5.05056C12.7735 4.99378 12.7539 4.93699 12.7338 4.87848C12.7087 4.75279 12.6837 4.6271 12.658 4.49761C12.658 4.13417 12.658 3.77073 12.658 3.39628C11.5986 3.39628 10.5392 3.39628 9.44777 3.39628C9.44777 9.86547 9.44777 16.3347 9.44777 22.9999C8.8357 22.9999 8.22362 22.9999 7.593 22.9999C7.27739 22.9477 7.27739 22.9477 6.95542 22.8944C6.81486 22.8539 6.81486 22.8539 6.67146 22.8126C6.62462 22.7963 6.57778 22.7799 6.52951 22.7631C6.48026 22.7443 6.431 22.7256 6.38026 22.7062C6.32502 22.6841 6.26979 22.662 6.21288 22.6393C6.12621 22.6027 6.12621 22.6027 6.03778 22.5654C5.97954 22.5394 5.9213 22.5134 5.8613 22.4866C5.80303 22.4591 5.74475 22.4317 5.68471 22.4033C5.62732 22.3746 5.56992 22.3458 5.51078 22.3162C5.45488 22.2867 5.39899 22.2571 5.3414 22.2267C5.26029 22.1815 5.26029 22.1815 5.17755 22.1355C5.12716 22.1058 5.07676 22.076 5.02484 22.0454C4.98107 22.0176 4.9373 21.9898 4.8922 21.9611C4.8521 21.9336 4.81201 21.9062 4.7707 21.8779C4.69566 21.8211 4.62063 21.7643 4.54331 21.7058C4.47103 21.6446 4.39875 21.5834 4.32428 21.5203C4.28785 21.4872 4.25141 21.454 4.21386 21.4199C4.15624 21.3661 4.15624 21.3661 4.09745 21.3112C4.05444 21.2709 4.01143 21.2305 3.96711 21.189C3.89948 21.1244 3.89948 21.1244 3.83049 21.0585C3.78488 21.0138 3.73926 20.9691 3.69226 20.9231C3.64647 20.877 3.60068 20.8309 3.5535 20.7835C3.48572 20.713 3.48572 20.713 3.41656 20.6411C3.37227 20.5937 3.32799 20.5462 3.28237 20.4972C3.23918 20.4495 3.19599 20.4017 3.1515 20.3525C3.09006 20.2819 3.09006 20.2819 3.02739 20.2099C2.99039 20.1651 2.95339 20.1203 2.91526 20.0741C2.88063 20.0302 2.84599 19.9862 2.81031 19.9408C2.77712 19.8968 2.74393 19.8528 2.70973 19.8074C2.67772 19.7631 2.64572 19.7187 2.61274 19.673C2.58133 19.6276 2.54992 19.5822 2.51756 19.5355C2.4868 19.4893 2.45605 19.4432 2.42436 19.3956C2.39425 19.3487 2.36413 19.3018 2.3331 19.2534C2.28834 19.1817 2.28834 19.1817 2.24268 19.1085C2.21265 19.0599 2.18263 19.0112 2.15169 18.9611C2.12176 18.9112 2.09183 18.8614 2.06099 18.81C2.03125 18.7586 2.00151 18.7071 1.97088 18.6542C1.92665 18.5747 1.92665 18.5747 1.88153 18.4936C1.8525 18.4392 1.82348 18.3848 1.79358 18.3288C1.76467 18.2722 1.73576 18.2156 1.70597 18.1572C1.67703 18.098 1.64808 18.0388 1.61826 17.9778C1.5889 17.9148 1.55955 17.8518 1.5293 17.7869C1.48361 17.6838 1.48361 17.6838 1.43699 17.5786C1.39082 17.4701 1.39082 17.4701 1.34371 17.3593C1.31311 17.2847 1.2825 17.2101 1.25097 17.1332C1.2207 17.0566 1.19042 16.9801 1.15924 16.9013C1.12956 16.8236 1.09989 16.7459 1.06932 16.6659C1.04041 16.5874 1.01151 16.5089 0.981728 16.4281C0.953715 16.3491 0.925702 16.2702 0.89684 16.1888C0.856787 16.0713 0.856787 16.0713 0.815924 15.9514C0.791152 15.8753 0.766381 15.7993 0.740859 15.7209C0.705875 15.6081 0.705875 15.6081 0.670183 15.4931C0.648044 15.4181 0.625905 15.3432 0.603095 15.2659C0.582106 15.1908 0.561116 15.1156 0.539491 15.0382C0.519513 14.962 0.499535 14.8859 0.478951 14.8074C0.460031 14.731 0.44111 14.6546 0.421616 14.5759C0.403788 14.4996 0.385959 14.4232 0.367591 14.3446C0.350751 14.2691 0.333911 14.1936 0.316561 14.1159C0.292542 14.0063 0.292542 14.0063 0.268038 13.8946C0.253061 13.8219 0.238083 13.7491 0.222651 13.6742C0.208852 13.6001 0.195052 13.526 0.180835 13.4497C0.168242 13.3742 0.155649 13.2988 0.142675 13.221C0.131324 13.1445 0.119973 13.0681 0.108278 12.9893C0.0982945 12.9092 0.0883113 12.8291 0.0780255 12.7467C0.0651973 12.6196 0.0651973 12.6196 0.0521099 12.49C0.045213 12.3966 0.0383161 12.3032 0.0312102 12.2069C0.0285434 12.1537 0.0258766 12.1005 0.023129 12.0457C0.020922 11.9896 0.018715 11.9334 0.0164411 11.8756C0.0146386 11.8176 0.012836 11.7596 0.0109789 11.6999C0.00956285 11.6407 0.00814683 11.5814 0.0066879 11.5203C0.00562247 11.4606 0.00455705 11.4008 0.00345933 11.3393C0.00274306 11.2791 0.00202679 11.2188 0.00128881 11.1568C0.000916669 11.0961 0.000544524 11.0355 0.000161102 10.973C0.000107938 10.9122 5.47744e-05 10.8515 0 10.7889C0.000351311 10.6981 0.000351311 10.6981 0.000709719 10.6054C0.00124567 10.5453 0.00178161 10.4853 0.0023338 10.4234C0.00317651 10.3642 0.00401923 10.3051 0.00488748 10.2441C0.00660631 10.1569 0.00660631 10.1569 0.00835987 10.0679C0.00981038 10.0107 0.0112609 9.95348 0.0127553 9.89452C0.0145004 9.83918 0.0162455 9.78385 0.0180434 9.72683C0.0200751 9.67386 0.0221068 9.62089 0.0242001 9.56632C0.0265134 9.517 0.0288268 9.46768 0.0312102 9.41687C0.0366587 9.33351 0.0421073 9.25015 0.047721 9.16426C0.054227 9.09184 0.0607331 9.01941 0.0674363 8.94479C0.0749424 8.87861 0.0824486 8.81243 0.0901821 8.74424C0.0986768 8.68303 0.107172 8.62182 0.115924 8.55875C0.12543 8.49962 0.134936 8.44049 0.14473 8.37957C0.155087 8.32266 0.165444 8.26576 0.176115 8.20713C0.187242 8.1523 0.198369 8.09748 0.209833 8.041C0.227351 7.95883 0.227351 7.95883 0.245223 7.87501C0.257086 7.81758 0.268948 7.76016 0.28117 7.70099C0.293585 7.64276 0.305999 7.58453 0.31879 7.52453C0.331992 7.46638 0.345193 7.40823 0.358795 7.34831C0.379822 7.26149 0.379822 7.26149 0.401274 7.17291C0.416166 7.11612 0.431057 7.05933 0.4464 7.00081C0.462314 6.94413 0.478229 6.88744 0.494626 6.82903C0.511627 6.77198 0.528628 6.71492 0.546144 6.65613C0.564547 6.598 0.58295 6.53988 0.601911 6.47999C0.622245 6.4195 0.64258 6.35901 0.66353 6.29669C0.685221 6.23518 0.706912 6.17368 0.72926 6.1103C0.763287 6.01777 0.763287 6.01777 0.798002 5.92336C0.821572 5.86173 0.845143 5.8001 0.869427 5.7366C0.893687 5.67549 0.917947 5.61438 0.942942 5.55141C0.967788 5.491 0.992634 5.43059 1.01823 5.36834C1.04359 5.30876 1.06895 5.24918 1.09507 5.1878C1.12066 5.12964 1.14625 5.07148 1.17261 5.01156C1.19802 4.95567 1.22342 4.89978 1.24959 4.8422C1.27513 4.78792 1.30068 4.73364 1.32699 4.67772C1.35285 4.62469 1.37872 4.57166 1.40536 4.51702C1.43155 4.46518 1.45773 4.41335 1.48471 4.35994C1.51127 4.3091 1.53782 4.25826 1.56518 4.20587C1.59214 4.15611 1.61911 4.10634 1.6469 4.05507C1.67428 4.00643 1.70166 3.9578 1.72987 3.90769C1.75785 3.86007 1.78582 3.81245 1.81465 3.76339C1.84355 3.71662 1.87245 3.66985 1.90222 3.62167C1.93162 3.57597 1.96103 3.53027 1.99132 3.48318C2.02092 3.43872 2.05052 3.39425 2.08102 3.34844C2.11082 3.30517 2.14063 3.2619 2.17134 3.21731C2.20142 3.17513 2.2315 3.13295 2.2625 3.08949C2.29237 3.04876 2.32225 3.00803 2.35303 2.96607C2.41078 2.88998 2.46853 2.81388 2.52803 2.73548C2.57842 2.66999 2.62881 2.60449 2.68073 2.53701C2.73039 2.47682 2.78005 2.41663 2.83121 2.35461C2.90942 2.26829 2.90942 2.26829 2.98921 2.18023C3.04889 2.12117 3.10857 2.06211 3.17006 2.00127C3.22526 1.95115 3.22526 1.95115 3.28156 1.90002C3.32137 1.86529 3.36118 1.83055 3.40219 1.79477C3.44351 1.75987 3.48483 1.72498 3.5274 1.68903C3.56985 1.65426 3.61231 1.6195 3.65605 1.58368C3.72036 1.5326 3.72036 1.5326 3.78596 1.48048C3.8288 1.44743 3.87163 1.41439 3.91577 1.38033C3.9583 1.34847 4.00083 1.31661 4.04465 1.28379C4.08561 1.25404 4.12658 1.22428 4.16879 1.19363C4.24199 1.14337 4.31519 1.09311 4.39061 1.04133C4.46013 0.997701 4.52965 0.95407 4.60127 0.909116C4.67061 0.869554 4.73995 0.829993 4.81139 0.789232C4.88183 0.753078 4.95227 0.716923 5.02484 0.679673C5.0997 0.645033 5.17455 0.610393 5.25167 0.574703C5.32837 0.542713 5.40506 0.510722 5.48408 0.477763C5.59926 0.434605 5.59926 0.434605 5.71676 0.390575C5.79447 0.364831 5.87217 0.339088 5.95223 0.312564C6.03214 0.289849 6.11205 0.267134 6.19439 0.243731C6.27338 0.224045 6.35237 0.204359 6.43376 0.184076C6.50402 0.167797 6.57427 0.151518 6.64666 0.134746C6.72353 0.120738 6.80041 0.106731 6.87962 0.0922986C6.9267 0.085733 6.97379 0.0791673 7.0223 0.0724028C7.07392 0.0661604 7.12554 0.0599181 7.17872 0.0534866C7.23555 0.0471618 7.29237 0.040837 7.35092 0.0343206C7.40727 0.0292241 7.46361 0.0241277 7.52166 0.0188768Z" fill="white"/>
<path d="M11.8019 12.2804C14.7916 12.2804 17.7814 12.2804 20.8618 12.2804C20.8676 13.1466 20.8735 14.0128 20.8796 14.9053C20.8822 15.1755 20.8848 15.4458 20.8875 15.7243C20.8881 15.8352 20.8887 15.946 20.8893 16.0602C20.8894 16.1129 20.8896 16.1656 20.8897 16.2199C20.8896 16.3 20.8896 16.3 20.8896 16.3817C20.8896 16.4395 20.8895 16.4972 20.8894 16.5567C20.8892 16.6156 20.8889 16.6745 20.8887 16.7352C20.8882 16.7934 20.8877 16.8517 20.8871 16.9117C20.8863 16.9689 20.8855 17.0261 20.8846 17.085C20.883 17.1677 20.883 17.1677 20.8813 17.252C20.8797 17.3051 20.8782 17.3582 20.8766 17.4129C20.8745 17.464 20.8724 17.515 20.8703 17.5676C20.8675 17.6158 20.8647 17.664 20.8618 17.7136C20.8531 17.7987 20.8445 17.8838 20.8356 17.9714C20.8248 18.0468 20.814 18.1221 20.8029 18.1997C20.791 18.2681 20.779 18.3364 20.7667 18.4068C20.7541 18.4682 20.7415 18.5297 20.7286 18.593C20.7165 18.6482 20.7044 18.7034 20.6919 18.7602C20.6796 18.8103 20.6674 18.8605 20.6547 18.9121C20.6289 19.0012 20.603 19.0903 20.5764 19.1821C20.5472 19.2703 20.518 19.3585 20.4879 19.4494C20.4478 19.5578 20.4478 19.5578 20.407 19.6685C20.3768 19.7357 20.3467 19.8029 20.3156 19.8721C20.2839 19.9352 20.2523 19.9982 20.2197 20.0631C20.1866 20.1277 20.1535 20.1922 20.1194 20.2587C20.0848 20.3214 20.0502 20.384 20.0146 20.4486C19.9603 20.5373 19.9603 20.5373 19.9048 20.6279C19.8675 20.6838 19.8302 20.7397 19.7917 20.7974C19.7544 20.8495 19.717 20.9017 19.6786 20.9554C19.6394 21.0047 19.6002 21.054 19.5598 21.1048C19.5178 21.1518 19.4758 21.1989 19.4325 21.2473C19.3862 21.2927 19.34 21.338 19.2923 21.3847C19.2395 21.4293 19.1866 21.4739 19.1321 21.5198C19.0746 21.5631 19.0171 21.6063 18.9579 21.6509C18.8968 21.6925 18.8356 21.7342 18.7726 21.7771C18.6768 21.8373 18.6768 21.8373 18.579 21.8987C18.5143 21.9373 18.4497 21.9759 18.3831 22.0157C18.3153 22.0528 18.2475 22.0899 18.1777 22.1281C18.1057 22.1636 18.0337 22.1991 17.9595 22.2357C17.8814 22.2698 17.8033 22.304 17.7229 22.3392C17.6353 22.3726 17.5476 22.406 17.4573 22.4405C17.4112 22.4566 17.365 22.4727 17.3175 22.4892C17.2703 22.5049 17.2231 22.5205 17.1745 22.5365C17.1031 22.5591 17.1031 22.5591 17.0302 22.5821C16.9576 22.6037 16.9576 22.6037 16.8836 22.6257C16.8343 22.6394 16.7851 22.6532 16.7343 22.6673C16.6839 22.6802 16.6335 22.693 16.5815 22.7063C16.529 22.7182 16.4766 22.73 16.4225 22.7422C16.3694 22.7532 16.3163 22.7641 16.2616 22.7754C16.2085 22.7856 16.1554 22.7958 16.1007 22.8064C16.049 22.8157 15.9972 22.8251 15.9439 22.8348C15.8959 22.8433 15.8479 22.8518 15.7984 22.8605C15.7282 22.8722 15.7282 22.8722 15.6566 22.8841C15.5616 22.8981 15.4666 22.9122 15.3688 22.9266C15.1569 22.9508 14.945 22.975 14.7267 23C13.7615 23 12.7963 23 11.8019 23C11.8019 19.4625 11.8019 15.9251 11.8019 12.2804Z" fill="white"/>
<path d="M42.2631 12.9412C42.3536 12.9503 42.3536 12.9503 42.4459 12.9595C42.5033 13.0019 42.5607 13.0444 42.6198 13.088C42.6772 13.138 42.7346 13.188 42.7937 13.2395C42.8842 13.3462 42.8842 13.3462 42.9765 13.4551C43.0111 13.4988 43.0458 13.5424 43.0815 13.5874C43.1355 13.6627 43.1355 13.6627 43.1905 13.7397C43.2262 13.7965 43.2618 13.8534 43.2986 13.912C43.3336 13.9793 43.3685 14.0466 43.4045 14.1159C43.438 14.2006 43.4714 14.2854 43.5059 14.3726C43.5219 14.4182 43.5378 14.4638 43.5542 14.5108C43.5695 14.5577 43.5849 14.6046 43.6007 14.6528C43.6155 14.7003 43.6302 14.7478 43.6455 14.7967C43.6663 14.8678 43.6663 14.8678 43.6876 14.9402C43.7119 15.0316 43.7362 15.1231 43.7612 15.2173C43.7781 15.2951 43.795 15.3729 43.8125 15.453C43.825 15.5251 43.8375 15.5973 43.8504 15.6716C43.8592 15.7391 43.868 15.8066 43.8771 15.8762C43.8859 15.9495 43.8948 16.0228 43.9039 16.0983C43.9106 16.1555 43.9173 16.2126 43.9242 16.2714C43.9301 16.3325 43.936 16.3936 43.942 16.4565C43.9481 16.5334 43.9541 16.6102 43.9603 16.6894C43.9652 16.7851 43.9701 16.8808 43.9752 16.9794C43.9767 17.0396 43.9783 17.0997 43.9799 17.1617C43.981 17.2278 43.9821 17.2938 43.9832 17.3619C43.984 17.4318 43.9848 17.5018 43.9856 17.5738C43.9861 17.6468 43.9866 17.7198 43.9872 17.7951C43.9876 17.907 43.9876 17.907 43.9881 18.0213C43.9882 18.0975 43.9883 18.1737 43.9884 18.2522C43.9884 18.3297 43.9884 18.4072 43.9884 18.487C43.9885 18.6039 43.9885 18.6039 43.9886 18.7232C43.989 18.8006 43.9894 18.878 43.9899 18.9577C43.9903 19.0346 43.9908 19.1114 43.9912 19.1906C43.9914 19.2668 43.9916 19.3429 43.9919 19.4213C43.9918 19.4964 43.9917 19.5716 43.9916 19.649C43.9912 19.7231 43.9908 19.7972 43.9904 19.8736C43.9895 19.9458 43.9885 20.018 43.9875 20.0923C43.9852 20.1968 43.9852 20.1968 43.9828 20.3034C43.9803 20.3695 43.9778 20.4356 43.9752 20.5036C43.9691 20.5949 43.9691 20.5949 43.9629 20.688C43.9579 20.7448 43.9528 20.8015 43.9477 20.86C43.942 20.9135 43.9363 20.967 43.9304 21.0221C43.9244 21.0718 43.9184 21.1215 43.9122 21.1728C43.8951 21.304 43.8951 21.304 43.8776 21.4378C43.8627 21.5172 43.8479 21.5966 43.8325 21.6784C43.8081 21.7628 43.7837 21.8473 43.7586 21.9343C43.7344 22.0058 43.7103 22.0773 43.6854 22.151C43.661 22.2145 43.6367 22.2781 43.6115 22.3435C43.5903 22.3905 43.5691 22.4376 43.5472 22.486C43.5236 22.5103 43.5001 22.5345 43.4758 22.5594C43.4229 22.5624 43.37 22.5654 43.3155 22.5685C43.2083 22.5684 43.2083 22.5684 43.0989 22.5683C43.0172 22.5684 42.9355 22.5685 42.8513 22.5686C42.7156 22.5682 42.7156 22.5682 42.5771 22.5678C42.5304 22.5678 42.4836 22.5678 42.4355 22.5678C42.3636 22.5678 42.3636 22.5678 42.2903 22.5678C42.2412 22.5678 42.192 22.5678 42.1413 22.5678C42.0909 22.5678 42.0405 22.5678 41.9885 22.5678C41.9367 22.5677 41.8849 22.5676 41.8315 22.5675C41.7523 22.5674 41.7523 22.5674 41.6715 22.5672C41.6181 22.5671 41.5646 22.567 41.5095 22.5669C41.4557 22.5668 41.402 22.5667 41.3466 22.5666C41.2932 22.5666 41.2397 22.5665 41.1847 22.5665C41.1044 22.5664 41.1044 22.5664 41.0224 22.5664C40.9415 22.5664 40.9415 22.5664 40.859 22.5664C40.8047 22.5663 40.7503 22.5663 40.6943 22.5663C40.6394 22.5663 40.5846 22.5663 40.528 22.5662C40.445 22.5662 40.445 22.5662 40.3603 22.5661C40.3045 22.5661 40.2488 22.5661 40.1913 22.566C40.135 22.566 40.0788 22.5659 40.0208 22.5659C39.964 22.5658 39.9072 22.5658 39.8486 22.5657C39.7913 22.5656 39.7341 22.5656 39.6751 22.5655C39.6175 22.5654 39.5599 22.5653 39.5006 22.5652C39.4428 22.5652 39.3849 22.5651 39.3254 22.565C39.2384 22.5649 39.2384 22.5649 39.1496 22.5647C39.0915 22.5647 39.0334 22.5646 38.9735 22.5645C38.9153 22.5644 38.857 22.5643 38.797 22.5643C38.7388 22.5642 38.6805 22.5641 38.6204 22.564C38.5621 22.564 38.5038 22.5639 38.4438 22.5639C38.3855 22.5638 38.3272 22.5638 38.2672 22.5637C38.209 22.5637 38.1509 22.5636 38.091 22.5636C38.0329 22.5636 37.9749 22.5635 37.9151 22.5635C37.8572 22.5634 37.7994 22.5634 37.7397 22.5634C37.6533 22.5633 37.6533 22.5633 37.5651 22.5633C37.5078 22.5632 37.4505 22.5632 37.3915 22.5631C37.3346 22.5631 37.2778 22.5631 37.2192 22.563C37.1629 22.563 37.1067 22.563 37.0487 22.5629C36.9929 22.5629 36.9372 22.5628 36.8797 22.5628C36.8244 22.5628 36.769 22.5627 36.712 22.5627C36.6572 22.5626 36.6023 22.5626 36.5458 22.5626C36.4914 22.5625 36.4371 22.5625 36.3812 22.5624C36.3272 22.5624 36.2733 22.5623 36.2178 22.5623C36.1643 22.5623 36.1107 22.5622 36.0556 22.5622C36.0022 22.5621 35.9487 22.5621 35.8937 22.562C35.813 22.5619 35.813 22.5619 35.7307 22.5619C35.6504 22.5618 35.6504 22.5618 35.5685 22.5617C35.4893 22.5616 35.4893 22.5616 35.4084 22.5615C35.3306 22.5614 35.3306 22.5614 35.2513 22.5613C35.2009 22.5613 35.1505 22.5612 35.0986 22.5612C35.0495 22.5611 35.0004 22.561 34.9498 22.561C34.902 22.5609 34.8542 22.5609 34.8049 22.5608C34.7582 22.5607 34.7115 22.5607 34.6634 22.5606C34.5275 22.5604 34.5275 22.5604 34.3888 22.5603C34.3073 22.5602 34.2258 22.5601 34.1418 22.5599C34.0703 22.5598 33.9989 22.5598 33.9252 22.5597C33.8753 22.5596 33.8254 22.5595 33.7739 22.5594C33.7954 22.5136 33.8168 22.4678 33.8389 22.4206C33.8645 22.3695 33.8902 22.3184 33.9166 22.2658C33.9671 22.2028 33.9671 22.2028 34.0186 22.1386C34.0577 22.0965 34.0968 22.0544 34.137 22.0111C34.1808 21.9636 34.2246 21.916 34.2697 21.8671C34.3165 21.8169 34.3633 21.7668 34.4115 21.7151C34.4598 21.6627 34.5081 21.6103 34.5579 21.5564C34.6308 21.4772 34.6308 21.4772 34.7052 21.3965C34.7775 21.3183 34.7775 21.3183 34.8512 21.2385C34.8959 21.1898 34.9406 21.1411 34.9867 21.091C35.0233 21.0504 35.0599 21.0098 35.0976 20.9679C35.1304 20.9312 35.1631 20.8945 35.1968 20.8567C35.2584 20.7871 35.32 20.7176 35.3835 20.6459C35.4763 20.5413 35.4763 20.5413 35.571 20.4345C35.6029 20.3986 35.6349 20.3628 35.6678 20.3258C35.7019 20.2876 35.7361 20.2493 35.7714 20.2099C35.8297 20.1454 35.8297 20.1454 35.8892 20.0795C35.9304 20.034 35.9716 19.9886 36.0141 19.9418C36.0562 19.8955 36.0982 19.8491 36.1416 19.8014C36.1842 19.7545 36.2268 19.7076 36.2707 19.6593C36.3345 19.5892 36.3345 19.5892 36.3995 19.5176C36.4414 19.4714 36.4833 19.4252 36.5266 19.3776C36.5677 19.3322 36.6089 19.2868 36.6513 19.2401C36.7101 19.175 36.7101 19.175 36.7701 19.1086C36.8231 19.0495 36.8231 19.0495 36.8772 18.9892C36.9104 18.952 36.9437 18.9147 36.978 18.8763C37.0103 18.8401 37.0425 18.8038 37.0758 18.7665C37.1073 18.731 37.1389 18.6955 37.1714 18.6589C37.2342 18.5882 37.297 18.5175 37.3617 18.4447C37.3932 18.4092 37.4247 18.3738 37.4571 18.3373C37.4894 18.3011 37.5216 18.2649 37.5548 18.2276C37.5888 18.1895 37.6228 18.1515 37.6578 18.1124C37.7101 18.054 37.7101 18.054 37.7635 17.9944C37.7988 17.955 37.8341 17.9157 37.8705 17.8751C37.9061 17.8354 37.9417 17.7958 37.9784 17.7549C38.014 17.7152 38.0496 17.6756 38.0863 17.6347C38.1219 17.595 38.1576 17.5552 38.1943 17.5143C38.2301 17.4744 38.2659 17.4346 38.3027 17.3936C38.3384 17.3538 38.3741 17.314 38.4109 17.2731C38.4463 17.2336 38.4817 17.1941 38.5182 17.1534C38.5535 17.1141 38.5888 17.0747 38.6252 17.0342C38.6604 16.9948 38.6957 16.9555 38.732 16.915C38.7673 16.8757 38.8026 16.8363 38.8389 16.7958C38.8919 16.7368 38.8919 16.7368 38.9459 16.6765C38.9812 16.6372 39.0165 16.5978 39.0529 16.5572C39.0882 16.5178 39.1235 16.4785 39.1599 16.4379C39.1952 16.3985 39.2305 16.3592 39.2669 16.3186C39.3022 16.2792 39.3375 16.2399 39.3739 16.1993C39.4092 16.1599 39.4446 16.1205 39.4809 16.08C39.5162 16.0406 39.5516 16.0012 39.5879 15.9607C39.6233 15.9213 39.6586 15.8819 39.6949 15.8414C39.7303 15.802 39.7656 15.7626 39.802 15.722C39.8373 15.6827 39.8726 15.6433 39.909 15.6027C39.9443 15.5634 39.9796 15.524 40.016 15.4834C40.0513 15.444 40.0866 15.4047 40.123 15.3641C40.1583 15.3247 40.1936 15.2854 40.23 15.2448C40.2653 15.2054 40.3006 15.1661 40.337 15.1255C40.3723 15.0861 40.4077 15.0467 40.4441 15.0061C40.4794 14.9667 40.5147 14.9274 40.551 14.8869C40.6035 14.8283 40.6035 14.8283 40.6571 14.7685C40.6921 14.7294 40.7272 14.6903 40.7633 14.65C40.7986 14.6107 40.8338 14.5714 40.8701 14.5309C40.9061 14.4909 40.942 14.4509 40.979 14.4096C41.0354 14.3471 41.0354 14.3471 41.0929 14.2832C41.1309 14.2411 41.1689 14.1989 41.2081 14.1555C41.2456 14.1138 41.2832 14.0721 41.3219 14.0291C41.3588 13.9881 41.3958 13.9471 41.4338 13.9049C41.4699 13.8651 41.5059 13.8254 41.5431 13.7845C41.5775 13.7463 41.612 13.7082 41.6475 13.6688C41.7094 13.5983 41.7713 13.5278 41.8351 13.4551C41.88 13.396 41.925 13.3368 41.9713 13.2759C42.0073 13.2275 42.0433 13.1792 42.0803 13.1293C42.1406 13.0672 42.2009 13.0052 42.2631 12.9412Z" fill="white"/>
</svg>
